<svg xmlns="http://www.w3.org/2000/svg" xmlns:xlink="http://www.w3.org/1999/xlink" viewBox="0 0 4680 3120"><defs><style>.cls-1{fill:none;}.cls-2{fill:#fff;}.cls-3{fill:#ede9de;}.cls-4{clip-path:url(#clip-path);}.cls-5{fill:#b7ae98;}.cls-6{opacity:0.69;}.cls-7{fill:#c6bfaf;}.cls-8{fill:#f5f2ed;}.cls-9{clip-path:url(#clip-path-2);}.cls-10{fill:#f2dcbd;}.cls-11{fill:#d7f0f4;}.cls-12{clip-path:url(#clip-path-3);}.cls-13{clip-path:url(#clip-path-4);}.cls-14{fill:#e7f5fe;}.cls-15{fill:#b5d8fe;}.cls-16{clip-path:url(#clip-path-5);}.cls-17{opacity:0.58;}.cls-18{opacity:0.57;}.cls-19{fill:#8d9ca0;}.cls-20{fill:#e2d7d7;}.cls-21{clip-path:url(#clip-path-6);}.cls-22{fill:#55b1bc;}.cls-23{clip-path:url(#clip-path-7);}.cls-24{fill:#021d28;}.cls-25{fill:#f27849;}.cls-26{clip-path:url(#clip-path-8);}.cls-27{fill:#d55018;}.cls-28{fill:#af9898;}.cls-29{fill:#7c6a6c;}.cls-30{fill:#90322f;}.cls-31{clip-path:url(#clip-path-9);}.cls-32{fill:#701c1c;}.cls-33{fill:#1b5970;}.cls-34{fill:#dd623c;}.cls-35{clip-path:url(#clip-path-10);}.cls-36{fill:#ce5230;}.cls-37{clip-path:url(#clip-path-11);}.cls-38{fill:#010c0f;}.cls-39{clip-path:url(#clip-path-12);}.cls-40{clip-path:url(#clip-path-13);}.cls-41{fill:#5eadbc;}.cls-42{clip-path:url(#clip-path-14);}.cls-43{fill:#2c808c;}.cls-44{clip-path:url(#clip-path-15);}.cls-45{clip-path:url(#clip-path-16);}.cls-46{clip-path:url(#clip-path-17);}.cls-47{fill:#ffa370;}.cls-48{clip-path:url(#clip-path-18);}.cls-49{clip-path:url(#clip-path-19);}.cls-50{fill:#fba63c;}.cls-51{clip-path:url(#clip-path-20);}.cls-52{fill:#ea881c;}.cls-53{clip-path:url(#clip-path-21);}.cls-54{fill:#89112e;}.cls-55{clip-path:url(#clip-path-22);}.cls-56{fill:#5b0a22;}.cls-57{fill:#fcd97b;}.cls-58{clip-path:url(#clip-path-23);}.cls-59{fill:#f4c356;}.cls-60{opacity:0.78;}.cls-61{fill:#ffe8b6;}.cls-62{clip-path:url(#clip-path-24);}.cls-63{clip-path:url(#clip-path-25);}</style><clipPath id="clip-path"><ellipse class="cls-1" cx="2340" cy="2479.2" rx="1081.66" ry="280.8"/></clipPath><clipPath id="clip-path-2"><path class="cls-1" d="M3376.68,1282.45c-24.49,172.07-144.33,321.06-313.44,433.77-417.36,278.16-1134.88,335.22-1459.94-27.72q-2.62-2.91-5.21-5.88C741.26,1101.38,1887.56-189.62,2760,618.91c42.11,39,95.38,63.76,152.18,72.12C3083.7,716.26,3441.94,823.82,3376.68,1282.45Z"/></clipPath><clipPath id="clip-path-3"><rect class="cls-1" x="1594.87" y="704.24" width="1491.44" height="892.14"/></clipPath><clipPath id="clip-path-4"><path class="cls-1" d="M2089.26,808.82s98.93-57.69,98.93,74.39S2080,948.49,2080,948.49s-2.33,88-75.65,85-105.92-65.28-105.92-65.28-32.59,67-117.55,65.36-75.65-65.36-75.65-65.36-105.92,62.25-116.39-66.8c-64-44,8.14-138.15,81.47-94.12,12.8-83.5,85-88.06,130.36-21.26,18.53-74.39,140.83-106.27,164.1-13.66C2005.46,715.45,2083.44,761.75,2089.26,808.82Z"/></clipPath><clipPath id="clip-path-5"><path class="cls-1" d="M2409.34,967.49s63-36.75,63,47.39-69,41.58-69,41.58-1.48,56.1-48.19,54.16-67.47-41.58-67.47-41.58-20.76,42.65-74.88,41.63-48.19-41.63-48.19-41.63-67.47,39.65-74.15-42.56c-40.78-28,5.19-88,51.9-60,8.16-53.19,54.13-56.09,83-13.54,11.81-47.38,89.72-67.69,104.54-8.7C2356,908,2405.63,937.51,2409.34,967.49Z"/></clipPath><clipPath id="clip-path-6"><rect class="cls-1" x="2435.3" y="1295.29" width="230.74" height="752.41" rx="12"/></clipPath><clipPath id="clip-path-7"><path class="cls-1" d="M2415.68,2341.85s-18.48,67.25-77.32,76.86-109.28,12-92.47,46.83,80.46,8.41,129.7,0,91.26,13.21,97.27-18-16.69-94.85-16.69-94.85Z"/></clipPath><clipPath id="clip-path-8"><path class="cls-1" d="M2501.67,1955s-151.3,8.6-176.52,33.82-30,46.83-13.21,82.86,103,269,89.92,300.22,27.77,25.21,47,7.2,13.21-289.41-18-308.62c50.44,2.4,98.47,1.2,98.47,1.2Z"/></clipPath><clipPath id="clip-path-9"><path class="cls-1" d="M2302.06,2126.9v47.56l240.58,12.31,722.76-89.16v-45.93l-103.11-8.11S2396.51,2072.43,2302.06,2126.9Z"/></clipPath><clipPath id="clip-path-10"><path class="cls-1" d="M2633.31,1100.19s70,296.78,73.67,364.59-2.24,160.12-45.79,155.24-66.09-122.2-76.28-177.84-5.56-339.09-5.56-339.09l3.88-95.82s48.56-2.6,59.27,12.16a51.36,51.36,0,0,1,11.45-21.8,6,6,0,0,1,10.44,4.06c0,13.26,0,34.64-.27,50.85C2663.68,1077.82,2633.31,1100.19,2633.31,1100.19Z"/></clipPath><clipPath id="clip-path-11"><path class="cls-1" d="M2658,1908.48s-117.91,49.09-167.15,46.69c13.21,31.23,16.81,121.29,16.81,121.29H2658v50.44l135.77-6s69.35-38.42,64.55-114.08-27.62-123.69-27.62-123.69Z"/></clipPath><clipPath id="clip-path-12"><path class="cls-1" d="M2650.59,2434.32s-26.42,17.18-44.43,36.81-26.42,50.85-40.83,71.27-12,44.43,34.82,40.83,84.06-3.6,92.47-56.44,0-108.08,0-108.08Z"/></clipPath><clipPath id="clip-path-13"><path class="cls-1" d="M2715.05,2014.24c-2.8-.51-5.57-1.19-8.31-1.94-10.86-3-36-6.18-45.34,24.53-12,39.63-7.21,379.48-25.22,409.5s38.43,31.22,48,12,115.47-224.05,90.16-336.59C2753.53,2029.11,2724.62,2016,2715.05,2014.24Z"/></clipPath><clipPath id="clip-path-14"><path class="cls-1" d="M2717.09,1427.65s-99.33,82.6-119.84,174.47S2636.17,1930,2636.17,1930s134.88,27,201.64-36c3.72-52.24,3.72-82.86,3.72-82.86l27-279.2Z"/></clipPath><clipPath id="clip-path-15"><path class="cls-1" d="M2783.89,1413s9.9,84.66-8.11,93.67-56.74,144.1-88.26,148.61-44.14-76.56-30.63-114.39,54-63,54-63l.9-4.38,5.41-26.25s-.74,2.6-10.83,4.71c-5.62,1.17-14.12,2.18-27,2.5-36,.9-49.54-30.62-51.34-77.06-1.4-36.37-5.58-79.08-7.33-95.88l-.77-7.35,63.94-9.62,42.33-6.43s3.61,23.4,40.53,27c-12.61,23.41,27,73,27,73Z"/></clipPath><clipPath id="clip-path-16"><path class="cls-1" d="M2830.72,1088.74s-54,300.1-54,368,10.81,159.78,54,152.57,59.44-125.57,66.65-181.67-12.61-338.91-12.61-338.91l-9-95.47s-48.63,0-58.54,15.32a51.44,51.44,0,0,0-12.59-21.15,6,6,0,0,0-10.22,4.6c.68,13.24,1.84,34.6,3,50.77C2799.2,1068,2830.72,1088.74,2830.72,1088.74Z"/></clipPath><clipPath id="clip-path-17"><path class="cls-1" d="M1998.74,2276.12s14.41,69.81,61.24,75.21,70.25,21.92,63.05,42.49-70.26,27.76-124.29,7.95-75.06-10.81-70.86-46.84S1923.08,2229.73,1998.74,2276.12Z"/></clipPath><clipPath id="clip-path-18"><path class="cls-1" d="M1944.48,1767.84l14.41,109.88,45,425.11s-41.43,10.67-61.25-39.78-74.85-198.45-69.46-327.34c-29.61-131.85-36.81-158.87-36.81-158.87Z"/></clipPath><clipPath id="clip-path-19"><path class="cls-1" d="M1637.28,1787.4l8.18,148.31,57.64,340.54s30.62,21.17,46.83-23.86c9-125.49-9-308-9-308l11.53-157Z"/></clipPath><clipPath id="clip-path-20"><path class="cls-1" d="M1684.57,1502.58a923.09,923.09,0,0,0-35.51,128.36c-14.41,72-16.21,183.73-16.21,183.73h124.29l15.47-134a19.59,19.59,0,0,1,24.1-16.78h0a19.59,19.59,0,0,1,14.71,16l21.37,134.83,126.1-21.61s-19.82-234.17-46.84-279.21S1684.57,1502.58,1684.57,1502.58Z"/></clipPath><clipPath id="clip-path-21"><path class="cls-1" d="M1886.23,1184.81s42.63-9,58.25,30.63,54,162.11,54,162.11l98.47-28.82,34.82-76.85s60.05-32.71,64.85,8.86-10.81,78.8-42,90.81-128.49,114.08-168.12,94.87S1905,1346.33,1905,1346.33,1848.41,1195,1886.23,1184.81Z"/></clipPath><clipPath id="clip-path-22"><path class="cls-1" d="M1737,888.8s-28.54-50.44-71.77-12.61-15,94.27-19.81,129.69-59.44,40.25-49.84,76.57,69.05,38.12,57.64,61.53,1.81,40.83,1.81,40.83l107.47-29.42Z"/></clipPath><clipPath id="clip-path-23"><path class="cls-1" d="M1725.54,1165.52l-47,9.69s.26,91.86-6.94,123.39c10.67,46.83,27,167.52,27,167.52l-20,52.24s111.94,71.15,233.53-4.51c-12.61-60.34-12.61-121.59-12.61-121.59s35.13-40.53,0-109c-9-74.76-13.21-98.48-13.21-98.48l-41.73-10.09Z"/></clipPath><clipPath id="clip-path-24"><path class="cls-1" d="M1905,956.82s-49.8-19.73-58.77-42c-13.26,24-110.49,75.2-109.92,95.29-22.26-19.79-31-7-31-7s-16,24.65,5,41.11,31.63,21.83,31.63,21.83l-9.77-5.9c-29.75-18-49-49.66-50-84.42a87.22,87.22,0,0,1,1-15.91c6-37.74,47.81-75.06,47.81-75.06s69.29-59.19,145.64-5.58S1917.4,959.39,1905,956.82Z"/></clipPath><clipPath id="clip-path-25"><path class="cls-1" d="M1678.52,1175.21s-53.48-7.81-66.69,36.62-38.42,150.11-38.42,150.11l-66.05-32.42s-45.63-31.22-73.25-10.81,25.21,72,25.21,72,121.29,74.46,142.91,64.85,69.35-157,69.35-157S1691.16,1219,1678.52,1175.21Z"/></clipPath></defs><title>07</title><g id="_07" data-name="07"><rect id="_07-2" data-name="07" class="cls-2" width="4680" height="3120"/><ellipse class="cls-3" cx="2340" cy="2479.2" rx="1081.66" ry="280.8"/><g class="cls-4"><path class="cls-5" d="M3392.76,2073.15,1075.11,2488.31a2,2,0,0,0,.35,4,2.19,2.19,0,0,0,.36,0l2317.64-415.16a2,2,0,1,0-.7-3.94Z"/><path class="cls-5" d="M3608.19,2338.28,1290.55,2753.44a2,2,0,0,0,.35,4,2.07,2.07,0,0,0,.35,0L3608.9,2342.22a2,2,0,1,0-.71-3.94Z"/><path class="cls-5" d="M3494.26,2698,1264.18,1942.6a2,2,0,1,0-1.28,3.79L3493,2701.76a2.05,2.05,0,0,0,.64.11,2,2,0,0,0,.64-3.9Z"/><path class="cls-5" d="M3538.66,3032.88l15,5.08a2.1,2.1,0,0,0,.65.1,2,2,0,0,0,.64-3.89l-6.27-2.13a50,50,0,0,1-6,.64Z"/><path class="cls-5" d="M1322.31,2280.05a2,2,0,0,0,1.25,2.54l2215.1,750.29,4-.2a50,50,0,0,0,6-.64L1324.85,2278.8A2,2,0,0,0,1322.31,2280.05Z"/></g><g class="cls-6"><ellipse class="cls-7" cx="2690.82" cy="2450.05" rx="468.85" ry="110.84" transform="translate(-119.99 138.64) rotate(-2.89)"/></g><g class="cls-6"><ellipse class="cls-7" cx="1864.47" cy="2424.31" rx="324.42" ry="100.46"/></g><path class="cls-8" d="M2912.19,691c-56.8-8.36-110.07-33.1-152.18-72.12C1887.56-189.62,741.26,1101.38,1598.09,1682.62q2.58,3,5.21,5.88c325.06,362.94,1042.58,305.88,1459.94,27.72,169.11-112.71,289-261.7,313.44-433.77C3441.94,823.82,3083.7,716.26,2912.19,691Z"/><path class="cls-1" d="M2912.19,691c-56.8-8.36-110.07-33.1-152.18-72.12C1887.56-189.62,741.26,1101.38,1598.09,1682.62q2.58,3,5.21,5.88c325.06,362.94,1042.58,305.88,1459.94,27.72,169.11-112.71,289-261.7,313.44-433.77C3441.94,823.82,3083.7,716.26,2912.19,691Z"/><g class="cls-9"><rect class="cls-10" x="1528.48" y="646.27" width="1623.04" height="1022.44"/><rect class="cls-11" x="1594.87" y="704.24" width="1491.44" height="892.14"/><g class="cls-12"><path class="cls-2" d="M2089.26,808.82c-5.82-47.07-83.8-93.37-124.54-36.44-23.27-92.61-145.57-60.73-164.1,13.66-45.4-66.8-117.56-62.24-130.36,21.26-73.33-44-145.49,50.1-81.47,94.12,10.47,129.05,116.39,66.8,116.39,66.8s-9.32,63.77,75.65,65.36,117.55-65.36,117.55-65.36,32.59,62.25,105.92,65.28,75.65-85,75.65-85,108.24,66.8,108.24-65.28S2089.26,808.82,2089.26,808.82Z"/><g class="cls-13"><path class="cls-14" d="M2087.37,837.17c-50.17-59.06-139.5-10.93-139.5-10.93s-48.95-72.07-115,1.36c43.29-62.26,63.63-54.27,63.63-54.27s-50.66-46.73-101.81,60.43c-58.5-70.57-113.57,1.82-113.57,1.82s-57.49-80.81-110.12-3.69-25.71,236.73-25.71,236.73l241.07,116.53,422.19-134.09V857.92S2141.34,773.07,2087.37,837.17Z"/><path class="cls-15" d="M2187.43,864.35s-16.85,137.23-136.85,37.5c-68,64.08-136,29.29-136,29.29s19.24,5.59,46.19-29.29-16.68,38.95-111.64,3.63C1885,931.14,1894,931.14,1894,931.14s-45.85,74.09-112.58,51.29c-50-17.09-47.6-57.25-43.25-76.32-6.39,14.56-25.5,39.4-81.56,40.59-79.56,1.67-60.93-80.8-60.93-80.8s-15.52,25.64-50.17-3.19-49.31-72.36-49.31-72.36l-33.36,168.92,18.44,151.92,304.93,210.7,388.82-199.53s62.88-116.52,60.31-153.23S2187.43,864.35,2187.43,864.35Z"/><path class="cls-15" d="M1738.19,906.11a38.84,38.84,0,0,0,3.13-10.41A71.13,71.13,0,0,0,1738.19,906.11Z"/></g><path class="cls-2" d="M2409.34,967.49c-3.71-30-53.39-59.48-79.34-23.21-14.82-59-92.73-38.68-104.54,8.7-28.91-42.55-74.88-39.65-83,13.54-46.71-28-92.68,31.92-51.9,60,6.68,82.21,74.15,42.56,74.15,42.56s-5.94,40.62,48.19,41.63,74.88-41.63,74.88-41.63,20.76,39.65,67.47,41.58,48.2-54.16,48.2-54.16,69,42.56,69-41.58S2409.34,967.49,2409.34,967.49Z"/><g class="cls-16"><path class="cls-14" d="M2408.13,985.56c-32-37.63-88.87-7-88.87-7s-31.18-45.91-73.27.86c27.57-39.65,40.53-34.57,40.53-34.57s-32.27-29.76-64.85,38.5c-37.27-45-72.35,1.16-72.35,1.16s-36.62-51.48-70.15-2.35-16.38,150.8-16.38,150.8l153.57,74.23,268.95-85.41v-123S2442.51,944.72,2408.13,985.56Z"/><path class="cls-15" d="M2471.87,1002.87s-10.73,87.42-87.18,23.89c-43.32,40.82-86.65,18.65-86.65,18.65s12.27,3.57,29.43-18.65-10.62,24.81-71.11,2.31c22.88,16.34,28.61,16.34,28.61,16.34s-29.22,47.2-71.72,32.68c-31.85-10.89-30.32-36.47-27.55-48.62-4.08,9.28-16.25,25.1-52,25.85-50.68,1.07-38.81-51.46-38.81-51.46s-9.89,16.33-32-2-31.41-46.09-31.41-46.09l-21.26,107.6,11.75,96.78,194.25,134.22L2464,1167.23s40.05-74.23,38.42-97.62S2471.87,1002.87,2471.87,1002.87Z"/><path class="cls-15" d="M2185.7,1029.47a24.94,24.94,0,0,0,2-6.63A44.13,44.13,0,0,0,2185.7,1029.47Z"/></g><g class="cls-17"><path class="cls-2" d="M2968.8,1153c-80.8-7.73-145,70.68-224.91,84.62-87.4,15.25-169.81-48.86-258.45-52.73-70.2-3-136.76,32.23-191.81,75.91-57.84,45.9-114,105-187.6,110.43-76.29,5.64-143-48.76-217-68.06-67.24-17.53-140.38-4.9-201.91,27.39s-112,83.16-150.93,140.72l-7.7,47.56c5,52.15,40.44,97.75,84.23,126.53s95.4,43,146.6,54.19c212.12,46.2,431.47,46.06,648.39,37.3,120.49-4.87,241.16-12.37,360-32.67,61-10.42,122.79-24.76,175-58,87.56-55.72,136.51-158.62,150-261.53,6.37-48.59,5.51-99.61-14.13-144.52S3017.59,1157.65,2968.8,1153Z"/></g><g class="cls-18"><polygon class="cls-2" points="1578.15 1668.71 1877.28 1692.06 2560.71 625.32 2265.18 608.6 1578.15 1668.71"/></g><g class="cls-18"><polygon class="cls-2" points="2094.64 1635.22 2200.22 1650.31 2824.65 669.88 2716.63 646.27 2094.64 1635.22"/></g><g class="cls-18"><polygon class="cls-2" points="2743.38 1692.06 3086.31 1758.94 3345.31 1208.35 3151.52 902.87 2743.38 1692.06"/></g></g><path class="cls-19" d="M2637.34,953.65h-193.4c-165.68,0-301.24,135.56-301.24,301.24v817.67a20.12,20.12,0,0,0,20.07,20.06h77.8V1248.94c0-104.59,85.57-190.15,190.15-190.15H2654.8c104.58,0,190.15,85.56,190.15,190.15v843.68h73.57a20.12,20.12,0,0,0,20.06-20.06V1254.89C2938.58,1089.21,2803,953.65,2637.34,953.65Z"/><polygon class="cls-2" points="2540.64 1353.59 2560.71 1353.59 2560.71 1058.79 2540.64 1059.78 2540.64 1353.59"/><rect class="cls-20" x="2069.13" y="1208.35" width="948.03" height="40.13" rx="12"/><rect class="cls-19" x="2435.31" y="1295.29" width="230.74" height="752.41" rx="12"/><g class="cls-21"><rect class="cls-2" x="2489.23" y="1335.92" width="207.33" height="17.66" rx="5.28"/><rect class="cls-2" x="2489.23" y="1412.84" width="207.33" height="17.66" rx="5.28"/><rect class="cls-2" x="2489.23" y="1489.75" width="207.33" height="17.66" rx="5.28"/><rect class="cls-2" x="2489.23" y="1566.66" width="207.33" height="17.66" rx="5.28"/><rect class="cls-2" x="2489.23" y="1643.58" width="207.33" height="17.66" rx="5.28"/><rect class="cls-2" x="2489.23" y="1720.49" width="207.33" height="17.66" rx="5.28"/><rect class="cls-2" x="2489.23" y="1797.4" width="207.33" height="17.66" rx="5.28"/><rect class="cls-2" x="2489.23" y="1874.31" width="207.33" height="17.66" rx="5.28"/><rect class="cls-2" x="2489.23" y="1951.23" width="207.33" height="17.66" rx="5.28"/></g></g><path class="cls-22" d="M2415.68,2341.85s-18.48,67.25-77.32,76.86-109.28,12-92.47,46.83,80.46,8.41,129.7,0,91.26,13.21,97.27-18-16.69-94.85-16.69-94.85Z"/><g class="cls-23"><path class="cls-2" d="M2481,2402.24c-1.2-3.27-2.65-6.64-5.4-8.79a16.16,16.16,0,0,0-8-2.89c-16.61-2.14-33.06,7.24-43.64,20.23s-16.28,29.17-21.35,45.13l1-3.14c-.06,14,19,15.71,32.88,14,5.06-.62,9.79-2.76,14.38-5q11.22-5.41,22.06-11.59c5.59-3.19,11.5-7,13.61-13.07,1.31-3.78.94-7.92.35-11.88A117.4,117.4,0,0,0,2481,2402.24Z"/><path class="cls-24" d="M2479.34,2439.49a13.22,13.22,0,0,0-5.56-.68c-13.39.67-25.36,9.43-38.75,10.15-11.55.63-22.49-4.78-33.84-7-26.49-5.25-52.91,6.79-78.22,16.23s-55.29,16-78,1.46l-2.17,3.09c4.56,12.26,11.79,24.24,23.2,30.63,12.27,6.86,27.39,6.19,41.1,3.09S2334,2488,2347.91,2486c22.87-3.21,46,2.88,69.11,2.49a123.57,123.57,0,0,0,44.23-9c6.84-2.78,13.59-6.29,18.53-11.77s7.8-13.28,5.86-20.41C2484.72,2444,2482.58,2440.77,2479.34,2439.49Z"/><path class="cls-24" d="M2310.18,2412l2.63,8.83c3,3.43,3.63,8.29,5.29,12.55s5.63,8.51,10.08,7.47,6.15-6.79,5.42-11.35C2331.88,2418.87,2320.87,2410.64,2310.18,2412Z"/><path class="cls-24" d="M2349.81,2414.5a111.65,111.65,0,0,0,3.12,16.72c.46,1.72,1.1,3.6,2.68,4.4,1.75.89,4,0,5.17-1.62a10.18,10.18,0,0,0,1.6-5.58,35.41,35.41,0,0,0-10.85-27.38Z"/></g><path class="cls-25" d="M2325.15,1988.8c-25.22,25.22-30,46.83-13.21,82.86s103,269,89.92,300.22,27.77,25.21,47,7.2,13.21-289.41-18-308.62c50.44,2.4,98.47,1.2,98.47,1.2L2501.67,1955S2350.37,1963.58,2325.15,1988.8Z"/><g class="cls-26"><path class="cls-27" d="M2507.32,1957.78l-3.53,10.72c4.2,14,8.44,28.24,7.77,42.8s-7.18,29.69-19.89,36.82c-13.54,7.61-30.21,4.61-45.74,4.55s-34,5.74-37.77,20.82c-2.58,10.5,3.22,21,7.77,30.81,15.54,33.6,17.72,71.61,19.65,108.59l6.72,128.68c.74,14.1-.23,31.36-12.78,37.83-7.48,3.86-16.44,2.22-24.85,2.61s-18.26,4.79-18.91,13.18c-.46,6,4.45,11.43,10.15,13.44s12,1.34,17.92.36c15.23-2.53,31.1-7.62,40.82-19.61,8-9.83,10.64-22.82,12.71-35.3a671.43,671.43,0,0,0,3.51-194.48c-2-15.3-4.46-30.55-5.19-45.95-.29-6.31-.21-13,3-18.44,6.62-11.34,22.47-12,35.58-11.24l50.49,2.85c2.65.14,5.53.24,7.72-1.27,4.19-2.88,3.2-9.24,1.65-14.09A415,415,0,0,0,2507.32,1957.78Z"/></g><path class="cls-28" d="M3248.15,2411.78l-89.23-18.1v-296.2l-30.49-37.7v330.29l-90.26-14a14.11,14.11,0,0,0-16,11.28l-.09.47a14.11,14.11,0,0,0,11.52,16.59L3243,2439.53a14.11,14.11,0,0,0,5.14-27.75Z"/><path class="cls-29" d="M3125.25,2276.41l-651.38,102.07v23.42l655.43-99.16a13.32,13.32,0,1,0-4.05-26.33Z"/><path class="cls-28" d="M2567.8,2492.84l-89.24-18.11V2178.54l-30.48-37.7v330.29l-90.27-14a14.12,14.12,0,0,0-16,11.28l-.09.47a14.12,14.12,0,0,0,11.52,16.59l209.44,35.13a14.11,14.11,0,0,0,5.14-27.75Z"/><path class="cls-30" d="M2302.06,2126.9v47.56l240.58,12.31,722.76-89.16v-45.93l-103.11-8.11S2396.51,2072.43,2302.06,2126.9Z"/><g class="cls-31"><polygon class="cls-32" points="2286.72 2126.9 2286.72 2203.75 2535.3 2234.98 3284.65 2140.84 3291.85 2050.04 2552.12 2140.84 2286.72 2126.9"/></g><ellipse class="cls-33" cx="2533.5" cy="1032.3" rx="73.85" ry="95.47"/><ellipse class="cls-24" cx="2559.32" cy="1032.3" rx="73.85" ry="95.47"/><path class="cls-34" d="M2633.31,1100.19s30.37-22.37,30.81-47.65c.29-16.21.3-37.59.27-50.85a6,6,0,0,0-10.44-4.06,51.36,51.36,0,0,0-11.45,21.8c-10.71-14.76-59.27-12.16-59.27-12.16l-3.88,95.82s-4.64,283.46,5.56,339.09,32.72,173,76.28,177.84,49.43-87.43,45.79-155.24S2633.31,1100.19,2633.31,1100.19Z"/><g class="cls-35"><path class="cls-36" d="M2700.47,1305.8c-14.42-51.77-34-102.41-41.5-155.63-2.48-17.59-3.6-35.76,1-52.93,2.81-10.57,7.71-20.51,10.44-31.1a80.21,80.21,0,0,0-13.52-67.32l-2.08,7.63c13.64,22.46,5.71,55.27-16.68,69-4.86,3-10.36,5.26-14,9.63-7.28,8.73-4.39,21.73-1.21,32.63,23.71,81.14,42.88,164.74,40.67,249.24-.76,29-6.39,61.92-30.85,77.48-13.41,8.54-31.86,11.4-39.43,25.38-3.13,5.77-3.75,12.51-4.12,19.06a336.61,336.61,0,0,0,15.93,122.89c7,21.43,20.21,45.31,42.66,47.22,19.62,1.66,36-14.77,46.35-31.52,28.62-46.26,34.62-103.08,32.71-157.45C2724.84,1414.49,2715.37,1359.33,2700.47,1305.8Z"/></g><ellipse class="cls-25" cx="2595.65" cy="1009.78" rx="29.72" ry="14.12"/><ellipse class="cls-24" cx="2680.61" cy="1032.3" rx="73.85" ry="95.47"/><ellipse class="cls-33" cx="2706.43" cy="1032.3" rx="73.85" ry="95.47"/><path class="cls-2" d="M2721.79,1004.68c-11.8,0-21.37,12.37-21.37,27.62s9.57,27.62,21.37,27.62,21.37-12.36,21.37-27.62S2733.59,1004.68,2721.79,1004.68Z"/><path d="M2721.79,1002.68c-12.88,0-23.37,13.29-23.37,29.62s10.49,29.62,23.37,29.62,23.37-13.28,23.37-29.62S2734.68,1002.68,2721.79,1002.68Zm0,55.24c-10.68,0-19.37-11.49-19.37-25.62s8.69-25.62,19.37-25.62,19.37,11.5,19.37,25.62S2732.47,1057.92,2721.79,1057.92Z"/><path class="cls-2" d="M2733.2,1004.68c-11.8,0-21.37,12.37-21.37,27.62s9.57,27.62,21.37,27.62,21.37-12.36,21.37-27.62S2745,1004.68,2733.2,1004.68Z"/><path d="M2733.2,1002.68c-12.89,0-23.37,13.29-23.37,29.62s10.48,29.62,23.37,29.62,23.37-13.28,23.37-29.62S2746.08,1002.68,2733.2,1002.68Zm0,55.24c-10.68,0-19.37-11.49-19.37-25.62s8.69-25.62,19.37-25.62,19.37,11.5,19.37,25.62S2743.88,1057.92,2733.2,1057.92Z"/><ellipse class="cls-33" cx="2776.68" cy="1032.3" rx="73.85" ry="95.47"/><ellipse class="cls-24" cx="2802.5" cy="1032.3" rx="73.85" ry="95.47"/><path class="cls-24" d="M2830.72,1883.12,2658,1908.48s-117.91,49.09-167.15,46.69c13.21,31.23,16.81,121.29,16.81,121.29H2658v50.44l135.77-6s69.35-38.42,64.55-114.08S2830.72,1883.12,2830.72,1883.12Z"/><g class="cls-37"><path class="cls-2" d="M2773.61,1894.77c-.45,21.42-15.5,38.12-29,53.21-14.32,16-27.15,33.27-41.88,48.87a153.35,153.35,0,0,1-54.59,37.56c-20.88,8.4-43.21,12.69-65.59,14.42-28,2.17-56.12.54-84.11-1.09-1.92-.11-1.92,2.89,0,3,49.22,2.86,100.4,5.65,147.36-12.22a154.55,154.55,0,0,0,54.29-34.67c16.12-16,29.42-34.52,44.54-51.41,14.72-16.43,31.51-34.27,32-57.67C2776.65,1892.84,2773.65,1892.84,2773.61,1894.77Z"/><path class="cls-38" d="M2831.18,1874.63c-17.34-11.11-39.58-15.44-59-8.74l-18.77,22.22c-10.23,40.72-37.35,74.78-63.76,107.43-8.76,10.84-17.7,21.84-29.22,29.7-8.69,5.93-19.23,10.51-24,19.91-3,6-3.09,13-2.87,19.67a281.28,281.28,0,0,0,10.31,66.81c2.33,8.28,5.16,16.69,10.77,23.2,12.55,14.58,34.53,15.42,53.72,14.18a547.2,547.2,0,0,0,104.34-16.78c16-4.24,32.72-9.81,43.43-22.45,8.19-9.65,11.84-22.26,15-34.52,14.78-57.15,23.31-119.9-1.28-173.56C2861.28,1903,2848.52,1885.73,2831.18,1874.63Z"/><path class="cls-2" d="M2822.88,1890.11c7.92,27.3,10.32,55.47,9,83.8-.6,13.32-1.9,26.59-3.46,39.83-1.45,12.28-1.73,25.28-7.91,36.29-10.46,18.61-28.54,33.25-45.5,45.72-15.65,11.5-32.36,21.25-47.25,33.78-19.59,16.48-22.68,41-24,65.18-.11,1.93,2.89,1.92,3,0,.65-11.69,1.56-23.51,4.83-34.81,3.53-12.21,9.94-21.28,19.63-29.35,15.21-12.67,32.42-22.46,48.22-34.36,16.34-12.31,33.52-26.55,43.69-44.65,5.08-9,5.91-18.37,7.18-28.51,1.76-14,3.32-27.93,4.21-42,2-31-.09-61.85-8.75-91.75C2825.24,1887.46,2822.34,1888.25,2822.88,1890.11Z"/></g><path class="cls-22" d="M2692.61,2418.7l-42,15.62s-26.43,17.18-44.44,36.82-26.41,50.85-40.82,71.26-12,44.44,34.82,40.83,84.07-3.6,92.46-56.45c.38-2.32.71-4.66,1-7,3.22-24.57,3.08-49.1,2.07-67.85C2694.65,2432.07,2692.61,2418.7,2692.61,2418.7Z"/><g class="cls-39"><path class="cls-24" d="M2701.46,2485.67a2.39,2.39,0,0,1-.58-.56,59.67,59.67,0,0,0-1.66,13.16c1.07,18.28-17.59,35.39-29.47,49.32-3.77,4.42-7.63,8.91-12.54,12-4.08,2.58-8.72,4.09-13.34,5.47-23.4,7-48.41,11.05-72.19,5.54-6.86-1.59-14.59-5.12-15.86-12l-.9-3.4c-2.58,9.42-4.9,20.37.89,28.23a21.08,21.08,0,0,0,10.22,7.06c7.36,2.55,15.39,2.07,23.17,1.57l53.29-3.47c12.22-.79,25.16-1.84,35.08-9,7-5.06,11.72-12.65,15.85-20.24,5.86-10.76,11-22.08,13.39-34.09s2-24.84-2.89-36.08A7.5,7.5,0,0,0,2701.46,2485.67Z"/><path class="cls-24" d="M2700.88,2485.11a18.28,18.28,0,0,1,.6-2.05C2702.54,2480.18,2699.34,2483.15,2700.88,2485.11Z"/><path class="cls-24" d="M2631.36,2518.51c-10.71-5.41-22.14-9.86-34.11-10.71s-24.6,2.26-33.43,10.38l3.4,3.76a84.88,84.88,0,0,1,67.28,15.11c.38-3.27.75-6.55,1.13-9.82.24-2.06.43-4.31-.71-6A8.83,8.83,0,0,0,2631.36,2518.51Z"/><path class="cls-24" d="M2639.13,2485.76a71,71,0,0,0-44.08-1.23l-6,5.83a61.4,61.4,0,0,1,53.23,11.79c.43.35,1,.74,1.51.53a1.59,1.59,0,0,0,.73-1.12l1.32-4.52a10.58,10.58,0,0,0,.62-5C2645.82,2488.76,2642.32,2486.91,2639.13,2485.76Z"/></g><path class="cls-25" d="M2715.05,2014.24c-2.8-.51-5.57-1.19-8.31-1.94-10.86-3-36-6.18-45.34,24.53-12,39.63-7.21,379.48-25.22,409.5s38.43,31.22,48,12,115.47-224.05,90.16-336.59C2753.53,2029.11,2724.62,2016,2715.05,2014.24Z"/><g class="cls-40"><path class="cls-27" d="M2731,1984.22l-25.23,27.52c46.62,31.94,65.42,94.65,56.17,150.39-2.13,12.86-5.56,25.58-5.94,38.61-.25,8.87.91,17.75.44,26.62-1.12,20.87-11.14,40-20.2,58.89A769.51,769.51,0,0,0,2681,2441.86c-1.16,4.88-2.35,9.94-5.43,13.9-4.85,6.24-13.71,8.41-21.46,6.83s-14.51-6.33-20.2-11.81c-6.25,4.47-13.11,10-13.48,17.68-.53,11,12.47,17.61,23.48,18.49a68.79,68.79,0,0,0,43.58-11.41c13.53-9.1,23.36-22.76,31.21-37,16.79-30.52,25.67-64.62,37.55-97.37,18.42-50.77,44.49-99.54,51.94-153C2818.68,2113,2788.55,2033.51,2731,1984.22Z"/></g><path class="cls-41" d="M2597.25,1602.12C2576.73,1694,2636.17,1930,2636.17,1930s134.88,27,201.64-36c3.72-52.24,3.72-82.86,3.72-82.86l27-279.2-151.46-104.22S2617.76,1510.25,2597.25,1602.12Z"/><g class="cls-42"><path class="cls-43" d="M2892.74,1516.58c-7.6-12.85-24.62-15.34-38.8-20a94.26,94.26,0,0,1-40.12-26.08c-16.93-18.67-27.45-45-50.62-55-16.37-7-35.25-3.88-52.36,1.11-28.94,8.42-57.51,22.67-75.39,46.94s-22.23,60.18-4.09,84.26c6.87,48.31,22.12,15.94,29.6,64.16,3,19.4.76,50.81,20.16,53.77,17.52,2.68,46.69-21.15,56.23-36.09s15.74-32.31,28.34-44.77c3.92-3.87,10.22-7.25,14.57-3.87a11.12,11.12,0,0,1,3.16,4.79c6.16,15.14,3.49,33.27,11.93,47.27,12.26,20.35,43.65,21.5,62.92,7.61s28.57-37.74,33.91-60.88c3.38-14.67,5.6-29.71,5-44.75C2896.86,1528.68,2896,1522.09,2892.74,1516.58Z"/><path class="cls-43" d="M2894.13,1671.74c-.41-6.1-1.92-13.36-8.12-15.67-4.25-1.59-9.14-.09-13.07,2.07a36.42,36.42,0,0,0-13,12c-3.58,45.86-27.35,89-55.09,127.74-3.73,5.2-7.61,10.51-9.07,16.58s.06,13.18,5.52,16.9c4.45,3,11.52,4.21,12.58,9.19,1.36,6.44-8.71,9.42-12.34,15.08-7.7,12,16.64,23.52,14.6,37.3-1.17,7.82-10.25,12.23-18.33,15a318.18,318.18,0,0,1-160.13,11.89c-6.61-1.22-13.51-2.64-20-.9s-12,8-9.94,13.82c1,2.69,3.31,4.77,5.78,6.47,12.21,8.4,28.41,9.86,43.7,10.33,52.85,1.65,105.78-4.71,157.19-16,30.15-6.64,63.44-17.79,75.58-43.84,8.86-19,3.78-40.66,1.39-61.21C2885.38,1776.44,2897.65,1723.94,2894.13,1671.74Z"/><path class="cls-43" d="M2855.76,1679.44a33.06,33.06,0,0,1,4.22-9.33c.27-3.43.44-6.87.47-10.34Z"/><path class="cls-43" d="M2855.76,1679.44c-.17.63-.33,1.26-.45,1.9Z"/></g><path d="M2793.79,1222.94s-27.85-35.12-84.63-20.71c-44.44,11.28-83.89,29.73-98.93,37.22a23.27,23.27,0,0,0-12.39,14.85c-2.06,8,.34,17.71,22.13,19.82,38.72,3.76,118.94,18.17,118.94,18.17l47.71,105.55,54.91-86.66S2828,1219.34,2793.79,1222.94Z"/><path d="M2795.75,1220.84l-1.1,0a70,70,0,0,0-21-15.48c-13.13-6.52-35.07-12.7-65-5.1-44.66,11.33-84.34,29.91-99.33,37.36a25.28,25.28,0,0,0-13.44,16.15c-1.29,5.06-.68,9.43,1.81,13,3.59,5.12,11,8.25,22.06,9.32,35.83,3.48,108.23,16.27,117.75,18l48.8,108,57.29-90.41-.1-.74C2843,1307.14,2829.86,1220.84,2795.75,1220.84Zm-8.84,172.79-46.61-103.12-1-.19c-.8-.14-80.74-14.46-119.1-18.19-9.84-1-16.29-3.52-19.17-7.63-1.8-2.57-2.21-5.83-1.21-9.7a21.24,21.24,0,0,1,11.34-13.56c14.87-7.41,54.25-25.84,98.54-37.07a104.63,104.63,0,0,1,25.86-3.38,81.25,81.25,0,0,1,36.17,8.09c13.53,6.67,20.43,15.17,20.54,15.31l.68.86,1.09-.12c16.35-1.74,27.84,21.55,34.59,41.38a294.79,294.79,0,0,1,10.85,44.44Z"/><path class="cls-25" d="M2766.77,1285.09c-36.92-3.62-40.53-27-40.53-27l-42.33,6.43-63.94,9.62.77,7.35c1.75,16.8,5.93,59.51,7.33,95.88,1.8,46.44,15.31,78,51.34,77.06,12.88-.32,21.38-1.33,27-2.5,10.09-2.11,10.83-4.71,10.83-4.71l-5.41,26.25-.9,4.38s-40.53,25.21-54,63-.9,118.89,30.63,114.38,70.25-139.6,88.26-148.6,8.11-93.67,8.11-93.67l9.9-54.94S2754.16,1308.5,2766.77,1285.09Z"/><g class="cls-44"><path class="cls-27" d="M2817.4,1368.05c-.13-12.85.95-28-9-36.09-9-7.36-22.26-4.79-33.52-1.83l9.38,15.17c-6.52,14-13.2,28.88-11.56,44.24.54,5.1,2,10.1,2.22,15.23.29,7.1-1.82,14-3.4,21a145.36,145.36,0,0,0-3.22,43.67c.41,5.22,1.1,10.48.39,15.66a48.42,48.42,0,0,1-4.49,13.6c-16.66,35.88-57.64,122.69-61.23,131.28s-11.82,16.22-21.08,15.27c-6.44-.66-11.75-5.23-16.19-9.93a119.69,119.69,0,0,1-20.81-30.11,233,233,0,0,0,21.83,57.8c6.62,12.29,16.17,25.16,30,26.72,16.42,1.85,29.83-13.13,37-28,16.07-33.48,16.47-72.74,32.09-106.44a137.91,137.91,0,0,1,30.17-41.62c11.69-11.12,25.7-21,31.62-36,4.2-10.66,3.71-22.58,2.14-33.93C2826.22,1418.32,2817.67,1393.62,2817.4,1368.05Z"/></g><path class="cls-27" d="M2665,1368.18s-.75,11.59,20.79,8.89C2720.48,1372.72,2665,1368.18,2665,1368.18Z"/><path d="M2724,1311.89a23.76,23.76,0,0,0-16.33,7.28,2,2,0,0,0,3,2.63,20.13,20.13,0,0,1,13.5-5.91c7.3-.15,14.9,3.74,22.62,11.65a2,2,0,0,0,2.86-2.8C2741.09,1316,2732.46,1311.63,2724,1311.89Z"/><path d="M2665.24,1318.55c-.88-.31-21.67-7.41-30.36-.07a2,2,0,1,0,2.58,3.06c5.77-4.88,21.06-1.09,26.47.79a2.06,2.06,0,0,0,.65.11,2,2,0,0,0,.66-3.89Z"/><ellipse cx="2724.73" cy="1343.09" rx="7.64" ry="11.35"/><path d="M2650.38,1331.74c-4.22,0-7.65,5.08-7.65,11.35s3.43,11.34,7.65,11.34,7.64-5.08,7.64-11.34S2654.6,1331.74,2650.38,1331.74Z"/><path class="cls-27" d="M2738.91,1364.34c-11.56,0-20.94,3.8-20.94,8.49s9.38,8.49,20.94,8.49,20.94-3.8,20.94-8.49S2750.47,1364.34,2738.91,1364.34Z"/><path class="cls-27" d="M2702.83,1406.48H2671.3a2,2,0,0,0,0,4h31.53a2,2,0,0,0,0-4Z"/><path class="cls-27" d="M2759.84,1429.19c-14.12,12.61-42.6,18-42.6,18l-5.41,26.25C2732.71,1475.38,2772.84,1417.59,2759.84,1429.19Z"/><path class="cls-25" d="M2875.75,993.27s-48.63,0-58.54,15.32a51.44,51.44,0,0,0-12.59-21.15,6,6,0,0,0-10.22,4.6c.68,13.24,1.84,34.6,3,50.77,1.81,25.22,33.33,45.93,33.33,45.93s-54,300.1-54,368,10.81,159.78,54,152.57,59.44-125.57,66.65-181.67-12.61-338.91-12.61-338.91Z"/><g class="cls-45"><path class="cls-27" d="M2883.94,1022.1c-3.34-1.69-7.27-1.64-11-1.46-12.88.6-25.7,2.15-38.49,3.81-6.13.79-11.59-.66-15.42-5.51-4.88-6.17,1.41-15.44.65-23.28-.53-5.5-7.22-8.2-10.5-12.65-1.95-2.65-4.19-5.47-7.4-6.2s-7.21,2.15-6.18,5.28l-1.12,10.24a46.06,46.06,0,0,1,11.7,20.22c1.24,4.53,1.82,9.36,4.23,13.39,5.86,9.77,19.36,10.81,30.75,10.75l35.22-.22c4.67,0,10.42-.77,12.07-5.13C2889.75,1027.83,2887.29,1023.8,2883.94,1022.1Z"/><path class="cls-27" d="M2883.64,1083.84c9.81,74.51,19.14,153-9.4,222.55-3.2,7.81-6.93,15.77-6.63,24.21.23,6.53,2.87,12.71,5.38,18.75,12.51,30.13,22.64,61.85,23.35,94.47,1.21,55.78-24.92,108.23-34.78,163.15,16.76-2.66,26.37-20.14,32.83-35.83,63.4-154.18,63-333.48-1-487.4Z"/><path class="cls-27" d="M2833.77,1601.34c-13.23,1.19-23.69-8.08-30.23-16.79-14.86-19.81-23.73-41.77-32.48-63.53l-8.42,8.44c4.5,26.57,10.29,54.78,33.78,75,6.92,5.94,15.48,11.09,25.59,13.24s21.91.87,29.49-4.59,9.43-15.36,2.64-21.38C2848.34,1596,2841.91,1600.6,2833.77,1601.34Z"/></g><ellipse class="cls-24" cx="2923.79" cy="1032.3" rx="73.85" ry="95.47"/><ellipse class="cls-33" cx="2949.61" cy="1032.3" rx="73.85" ry="95.47"/><path class="cls-24" d="M2965,1004.68c-11.8,0-21.37,12.37-21.37,27.62s9.57,27.62,21.37,27.62,21.36-12.36,21.36-27.62S2976.77,1004.68,2965,1004.68Z"/><path class="cls-33" d="M2976.38,1004.68c-11.8,0-21.37,12.37-21.37,27.62s9.57,27.62,21.37,27.62,21.36-12.36,21.36-27.62S2988.18,1004.68,2976.38,1004.68Z"/><path class="cls-2" d="M2690.78,2460.71c-6,9.53-11.41,19.94-12.11,31.18s4.36,23.51,14.55,28.33a2.14,2.14,0,0,0,.42-.43c3.22-24.57,3.08-49.1,2.07-67.85Z"/><ellipse class="cls-24" cx="2215.59" cy="1309.78" rx="41.68" ry="53.88"/><ellipse class="cls-33" cx="2201.02" cy="1309.78" rx="41.68" ry="53.88"/><path class="cls-33" d="M2060,2351.33c-46.83-5.4-61.24-75.21-61.24-75.21-75.66-46.39-66.65,42.79-70.86,78.81s16.82,27,70.86,46.84,117.08,12.61,124.29-7.95S2106.81,2356.74,2060,2351.33Z"/><g class="cls-46"><path class="cls-2" d="M2126.6,2377.94a4.78,4.78,0,0,0-3.12.79c-11.82,6.34-20.91,17.69-33.77,21.5-5.92,1.75-12.21,1.74-18.39,1.71l-26.29-.1c-12.93-.06-27-.48-37-8.59-5.76-4.64-9.83-11.54-16.59-14.56-5.3-2.37-11.36-1.91-17.17-1.93a98.58,98.58,0,0,1-49.84-13.8l-6.82,1c4.24,20.79,19.39,38.28,37.77,48.88s39.74,15,60.9,16.59a254.55,254.55,0,0,0,75.76-5.73c10.68-2.45,21.39-5.67,30.55-11.7,6.3-4.14,12.14-10.4,12.22-17.94.06-5.11-2.56-9.86-5.56-14A4.84,4.84,0,0,0,2126.6,2377.94Z"/><path class="cls-2" d="M2012.86,2283.05a190.77,190.77,0,0,0-29.67-17.38c-7.43-3.49-15.35-6.56-23.56-6.33a31.37,31.37,0,0,0-27.72,19.61c6.91,8.83,30.61,25.68,39.59,28.38,12,3.61,52.46-.34,57-3.56s5.19,16,5.71,10.45a20.65,20.65,0,0,0-1.92-10.09C2028.45,2295.25,2020.74,2288.68,2012.86,2283.05Z"/><path class="cls-2" d="M2044,2341.08a5.76,5.76,0,0,0-3,.25l-6.42,3.42a81.47,81.47,0,0,0-12.43,13.61,4.41,4.41,0,0,0-1.1,2.62c.06,1.65,2,2.72,3.61,2.51a8.62,8.62,0,0,0,4.25-2.4,120.61,120.61,0,0,0,16.09-16.88,2.67,2.67,0,0,0,.52-.85A2,2,0,0,0,2044,2341.08Z"/><path class="cls-2" d="M2065.2,2347.45c-5.21,4.39-10.65,9.1-12.84,15.55-.38,1.11-.48,2.65.59,3.13.89.39,1.86-.3,2.56-1a63.46,63.46,0,0,0,12.93-17.08c.64-1.23,1.21-2.81.35-3.9Z"/></g><path class="cls-47" d="M1944.48,1767.84l-108.08,9s7.2,27,36.81,158.87c-5.39,128.89,49.65,276.89,69.46,327.34s61.25,39.78,61.25,39.78l-45-425.11Z"/><g class="cls-48"><path class="cls-27" d="M1912.09,2171.53c-22.21-77-35.08-158.05-23.23-237.25,1-6.79,2.21-13.74.8-20.46-1.14-5.36-3.87-10.22-6.39-15.09a228.18,228.18,0,0,1-25.35-97.26L1817.16,1769c20.15,51.42,22.34,107.76,29.36,162.54,9.92,77.42,29.84,153.17,49.71,228.66,8.07,30.66,16.14,61.33,25.14,91.73,4.43,14.94,9.27,30.19,18.91,42.43,7,8.92,18.25,16.31,29.23,13.41-4.75-29.18-23.87-53.62-37-80.15C1923.75,2209.73,1917.62,2190.67,1912.09,2171.53Z"/></g><path class="cls-33" d="M1726.52,2218.16l-25.22,22.64s4.37,101.65-29.34,108.86-66.13,21.61-58.92,36,68.44,34.22,102.67,16.21,64.85-87.38,55.84-125.65S1726.52,2218.16,1726.52,2218.16Z"/><path class="cls-1" d="M1691.72,2391c10-1.38,19.84-4,28.58-8.91,20.33-11.49,32-34.3,36.68-57.16,4.41-21.4,4.32-48.72,5.34-71.25a91.56,91.56,0,0,0-5.14-7.72c-1.73,12.65-8.06,24.77-18.31,32.31-11,8.06-26.43,10.1-38.59,4.21-1,12.34-2.86,25.61-6.09,37.11a12.52,12.52,0,0,1,7,2.65c3.83,3.14,4.65,9.89.73,12.91-3.71,2.86-8.82,1.14-13-1.39a43.83,43.83,0,0,1-4.78,7.72c1,.27,2,.52,3,.8a13,13,0,0,1,5.12,2.32c2.58,2.23,3.09,6.18,2.09,9.44s-3.22,6-5.45,8.57a82.38,82.38,0,0,0-16.8-12.93l-.12,0c-26.39,5.64-52,15.7-58.4,26.71l2,1.58A129,129,0,0,0,1691.72,2391Z"/><path class="cls-2" d="M1613,2385.69c7.2,14.41,68.44,34.22,102.67,16.21s64.85-87.38,55.84-125.65a80.32,80.32,0,0,0-9.23-22.62c-1,22.53-.93,49.85-5.34,71.25-4.72,22.86-16.35,45.67-36.68,57.16-8.74,4.94-18.63,7.53-28.58,8.91a129,129,0,0,1-76.17-13l-2-1.58A9.3,9.3,0,0,0,1613,2385.69Z"/><path class="cls-2" d="M1694.33,2354c1-3.26.49-7.21-2.09-9.44a13,13,0,0,0-5.12-2.32c-1-.28-2-.53-3-.8-3.35,4.24-7.33,7.15-12.06,8.2a82.38,82.38,0,0,1,16.8,12.93C1691.11,2360,1693.34,2357.26,1694.33,2354Z"/><path class="cls-2" d="M1701.93,2335.1c3.92-3,3.1-9.77-.73-12.91a12.52,12.52,0,0,0-7-2.65,84.13,84.13,0,0,1-5.27,14.17C1693.11,2336.24,1698.22,2338,1701.93,2335.1Z"/><path class="cls-2" d="M1738.87,2278.22c10.25-7.54,16.58-19.66,18.31-32.31a107.16,107.16,0,0,0-30.66-27.75l-25.22,22.64a372.11,372.11,0,0,1-1,41.63C1712.44,2288.32,1727.91,2286.28,1738.87,2278.22Z"/><path class="cls-47" d="M1637.28,1787.4l8.18,148.31,57.64,340.54s30.62,21.17,46.83-23.86c9-125.49-9-308-9-308l11.53-157Z"/><g class="cls-49"><path class="cls-27" d="M1768.22,1829.86c0-11.3.11-22.84-3.4-33.58s-11.35-20.75-22.25-23.76l-8.32,13.37c5.11,53.52,10.13,108.35-3.38,160.39-1.4,5.38-3,10.81-2.94,16.37.06,4.88,1.41,9.63,2.59,14.37,8.31,33.23,9,67.83,9.59,102.08q1.28,70,2.54,140c.27,14.58-.6,31.56-12.43,40.09-6.66,4.8-15.29,5.63-23,8.31s-15.68,8.94-15.2,17.13a16,16,0,0,0,4.58,9.66c12.68,13.76,36.51,8.4,50.31-4.25,15.64-14.34,23.53-35.21,28.66-55.81,20.36-81.76,5.18-167.48-1.91-251.44C1769.32,1932,1768,1880.9,1768.22,1829.86Z"/></g><path class="cls-50" d="M1684.57,1502.58a923.09,923.09,0,0,0-35.51,128.36c-14.41,72-16.21,183.73-16.21,183.73h124.29l15.47-134a19.59,19.59,0,0,1,24.1-16.78h0a19.59,19.59,0,0,1,14.71,16l21.37,134.83,126.1-21.61s-19.82-234.17-46.84-279.21S1684.57,1502.58,1684.57,1502.58Z"/><path class="cls-2" d="M1699.5,1553.07c-13-10.06-15.12-26.66-16.34-42-.15-1.91-3.15-1.93-3,0,1.28,16.06,3.6,33.55,17.22,44.09C1698.89,1556.36,1701,1554.25,1699.5,1553.07Z"/><g class="cls-51"><path class="cls-52" d="M1770.1,1798.15c-12.25-9.82-29.64-10-45.08-7.12s-30.64,8.22-46.34,7.79c-4.52-.12-9.41-.92-12.5-4.21s-2.87-9.75,1.32-11.43c-4.88,2.18-10.83-2.13-11.88-7.38s1.54-10.6,5-14.68,7.81-7.33,11.32-11.37c-19.18-14.09-27-39.33-27.65-63.11s4.73-47.29,6.39-71l-18.45,12.63c.94,58.24-29.69,113.57-28.57,171.8.26,13.13,2.75,27.41,12.59,36.1,9.62,8.49,23.62,9.35,36.45,9.16a396.68,396.68,0,0,0,79.72-9.28c11.25-2.48,22.54-5.5,32.57-11.16,6.27-3.54,12.6-9.46,11.7-16.6C1776.19,1804.16,1773.32,1800.73,1770.1,1798.15Z"/><path class="cls-52" d="M1977.2,1768.71c-13.42-6.91-29.53-1.51-44,2.66s-32.49,6.06-42.52-5.23c-8.64,4.75-18.63,9.64-28,6.43-12.61-4.35-16-20.16-18.18-33.32a402.9,402.9,0,0,0-8.82-40.93c-2.07-7.65-4.46-15.44-9.28-21.73s-12.62-10.88-20.48-9.81l-2,35.22A646.26,646.26,0,0,0,1820,1808.08c2.14,9,5,18.72,12.69,23.87,7.12,4.78,16.45,4.27,25,3.13A248.87,248.87,0,0,0,1978,1784.15c2.47-2,5.11-4.33,5.25-7.48C1983.43,1773.14,1980.34,1770.33,1977.2,1768.71Z"/><path class="cls-2" d="M1716.06,1498.74a1150.8,1150.8,0,0,0-35.51,132.66c-9,44.17-16.41,89.22-17.78,134.36a362.61,362.61,0,0,0,5.32,76.38c.34,1.89,3.24,1.09,2.89-.8-8.37-45.6-5.93-92.26.28-138a1115.43,1115.43,0,0,1,26.1-131.07q9.59-36.72,21.6-72.76C1719.57,1497.71,1716.67,1496.92,1716.06,1498.74Z"/><path class="cls-2" d="M1898.43,1506.43c-.62-1.82-3.51-1-2.89.79,25,74.09,34.78,152.78,40.37,230.46,1.55,21.63,2.72,43.29,3.66,65,.08,1.93,3.08,1.94,3,0-3.4-78.33-9.47-157.18-26.78-233.82A625.77,625.77,0,0,0,1898.43,1506.43Z"/><path class="cls-2" d="M1802.45,1695.27a1.5,1.5,0,0,0,0,3A1.5,1.5,0,0,0,1802.45,1695.27Z"/></g><path class="cls-47" d="M2131.81,1271.88,2097,1348.73l-98.47,28.82s-38.43-122.49-54-162.11-58.25-30.63-58.25-30.63C1848.41,1195,1905,1346.33,1905,1346.33s41.89,100.87,81.52,120.09,136.9-82.86,168.12-94.87,46.83-49.24,42-90.81S2131.81,1271.88,2131.81,1271.88Z"/><g class="cls-53"><path class="cls-27" d="M1919.13,1367.2c.36-6.42,2.79-12.64,2.72-19.08-.07-6.18,3-20.91,1.91-27-5.4-30.32-12.39-55.15-18.77-79.25s-16.26-42.64-11.85-67.18l-6.59,3.65c-4.87,4.59-7.85,10.81-10.3,17-10.94,27.81-13.2,58.57-9.29,88.19s13.82,58.21,26.46,85.28c12.88,27.6,28.89,54.16,50.73,75.39a351,351,0,0,0-16.92-47.87C1923.15,1387,1918.56,1377.37,1919.13,1367.2Z"/><path class="cls-27" d="M2126.3,1267.62a6.76,6.76,0,0,0-3.12,1.55c-6.23,4.72-10.88,11.15-15.71,17.28a268.23,268.23,0,0,1-36.54,38c-8,6.82-17,13.41-27.45,14.33-14.36,1.25-27.17-8.36-38.19-17.66-8.37-7.07-16.82-14.49-22-24.17l-12.06-4.15c11.23,26,21.85,69.73,24.11,98,.22,2.75.47,5.7,2.21,7.84,2.12,2.6,6,3.24,9.22,2.45s6.11-2.74,8.89-4.61a327.58,327.58,0,0,1,75.76-37.63c2.78-1,5.77-2,7.44-4.43a14.17,14.17,0,0,0,1.75-4.4,173.55,173.55,0,0,1,17-40.54c6.13-10.6,13.61-21.23,14.14-33.46C2132,1272.16,2130.09,1267.14,2126.3,1267.62Z"/><path class="cls-27" d="M2157,1263.65a14.93,14.93,0,0,0-10.19-5.5l4.77,6.55c6.25,8.82,7.28,20.19,8.11,31a35.55,35.55,0,0,0,2.19-21.28A24.18,24.18,0,0,0,2157,1263.65Z"/><path class="cls-27" d="M2171.39,1254l1.85,9.48a46.78,46.78,0,0,1,3.19,23.68c-.21,1.63.18,4,1.81,3.82a2.25,2.25,0,0,0,1-.47c5.27-3.74,6-11.32,4.93-17.7C2182.9,1265,2178.89,1256.67,2171.39,1254Z"/></g><path class="cls-54" d="M1665.27,876.19c-43.23,37.83-15,94.27-19.81,129.69s-59.44,40.25-49.84,76.57,69.05,38.12,57.64,61.53,1.81,40.83,1.81,40.83l107.47-29.42L1737,888.8S1708.5,838.36,1665.27,876.19Z"/><g class="cls-55"><path class="cls-56" d="M1706.33,876.19c-51.42,25.63-15,94.27-19.82,129.69s-59.44,40.25-49.84,76.57,69,38.12,57.65,61.53,1.8,40.83,1.8,40.83l107.48-29.42-.38-258.79S1769,845,1706.33,876.19Z"/></g><path class="cls-57" d="M1899.44,1283.29c-9-74.76-13.21-98.48-13.21-98.48l-41.73-10.09-119-9.2-47,9.69s.26,91.86-6.94,123.39c10.67,46.83,27,167.52,27,167.52l-20,52.24s111.94,71.15,233.53-4.51c-12.61-60.34-12.61-121.59-12.61-121.59S1934.57,1351.73,1899.44,1283.29Z"/><g class="cls-58"><path class="cls-59" d="M1923.2,1484.85c-5.23-5.18-14.06-2.84-20.58.58-12.37,6.48-23.17,15.55-35,23-37.52,23.56-85.67,29.41-127.74,15.5l17.37-11.79c-4.3-4.16-10.83-4.65-16.54-6.43s-11.72-6.78-10.29-12.59c.93-3.82,4.69-6.15,8.12-8.07l16.94-9.48a36,36,0,0,1-22.66-12.14l27.54-13.84c2.8-1.41,5.76-3,7.39-5.64,3.65-6-1.21-13.55-6.3-18.39-12.32-11.69-28-20.74-35.57-35.94-9.82-19.75-2.94-43.17-.07-65,7.06-53.67-12.17-108.52-44.2-152.16l-13.61-4.25c-15-.26-24.85,15.52-29.67,29.74-16.94,50-11,105.8,8.44,154.87,7.86,19.81,18,39.53,18.23,60.84.24,23.94-12.07,45.92-20,68.5s-10.63,50.49,5.7,68c6.68,7.16,15.74,11.6,24.82,15.29,73.24,29.83,161.77,18.39,225-29.08,13.76-10.32,27.43-24.67,26.35-41.84C1926.65,1491,1925.69,1487.32,1923.2,1484.85Z"/><g class="cls-60"><polygon class="cls-61" points="1695.34 1202.3 1762.54 1215.74 1740.58 1150.82 1695.34 1202.3"/></g><g class="cls-60"><polygon class="cls-61" points="1820.15 1227.36 1883.46 1201.11 1829.08 1159.41 1820.15 1227.36"/></g><g class="cls-60"><polygon class="cls-61" points="1667.94 1368.67 1731.25 1342.43 1676.87 1300.73 1667.94 1368.67"/></g><g class="cls-60"><polygon class="cls-61" points="1787.37 1333.23 1850.68 1306.98 1796.29 1265.28 1787.37 1333.23"/></g><g class="cls-60"><polygon class="cls-61" points="1880.91 1441.31 1944.22 1415.06 1889.84 1373.36 1880.91 1441.31"/></g><g class="cls-60"><polygon class="cls-61" points="1750.44 1445.33 1811.45 1476.56 1807.99 1408.11 1750.44 1445.33"/></g><g class="cls-60"><polygon class="cls-61" points="1643.25 1512.78 1704.25 1544.01 1700.8 1475.56 1643.25 1512.78"/></g></g><ellipse class="cls-24" cx="1419" cy="1340.96" rx="41.68" ry="53.88"/><ellipse class="cls-33" cx="1433.57" cy="1340.96" rx="41.68" ry="53.88"/><path class="cls-47" d="M1880.81,918c-31.58-18.4-70.72-7.29-85.61,11.73a21.58,21.58,0,0,1-16.3,8c-57.73,2-42.6,72.27-42.6,72.27s-26.27-29.9-35.16,2.72,40.88,53.26,40.88,53.26l-1.35,81.47-40.59,23.76s23.42,17.11,65.11,25.31c54.47,10.72,79.31-21.87,79.31-21.87l-36.8-24.39-1.16-15.47-1.19-16a3.13,3.13,0,0,1,4.15-3.19,42,42,0,0,0,6.65,1.57,105.71,105.71,0,0,0,10.7,1.11c20.16,1.19,51.58-26.09,61.07-48,6.72-15.54,13.45-72.48,16.79-104.34A49.4,49.4,0,0,0,1880.81,918Z"/><ellipse cx="1795.59" cy="1013.5" rx="8.01" ry="11.89"/><path d="M1873.5,1001.62c-4.42,0-8,5.32-8,11.88s3.59,11.89,8,11.89,8-5.32,8-11.89S1877.92,1001.62,1873.5,1001.62Z"/><path class="cls-27" d="M1723.06,1017.07c-1-1.49-2.35-3-4.12-3a4.5,4.5,0,0,0-3.46,2.35,9.27,9.27,0,0,0,6.64,14.2c1.12.14,2.42.15,3.15,1a4,4,0,0,1,.67,2.25,9.82,9.82,0,0,0,2.39,6c1.54,1.55,4.24,2.12,6,.77s3.09-2.72,2.67-5C1730,1032.05,1727.39,1023.62,1723.06,1017.07Z"/><path class="cls-27" d="M1775.58,1032.34c-12.12,0-21.94,4-21.94,8.9s9.82,8.9,21.94,8.9,21.94-4,21.94-8.9S1787.7,1032.34,1775.58,1032.34Z"/><path class="cls-27" d="M1806.54,1134.86l-1.19-16a3.13,3.13,0,0,1,4.15-3.19,42,42,0,0,0,6.65,1.57c-7.79-3.55-26.16-12.19-39.82-20.85C1760,1086,1771.14,1132.62,1806.54,1134.86Z"/><path class="cls-27" d="M1843.59,1080.24a2,2,0,0,0-1,1.07c-5.9,2.48-21.68,6.64-34.5-4.2a2,2,0,1,0-2.58,3.05,33.77,33.77,0,0,0,22.34,8.14c10.25,0,18.46-4.12,19.61-5.12a2.1,2.1,0,0,0,.49-2.76C1846.87,1078.79,1845,1079.63,1843.59,1080.24Z"/><path class="cls-27" d="M1838.5,1026.45a2,2,0,0,0-3.08,2.56c7.19,8.62,12.16,18,10.44,19.7-2.22,2.16-9.09,3-12.91,3a2,2,0,0,0,0,4c1.17,0,11.6-.11,15.69-4.11,2.76-2.7,1.77-7.59-3.11-15.39A99.46,99.46,0,0,0,1838.5,1026.45Z"/><path class="cls-54" d="M1733.28,1060.77c5.82,3.8,8.74,5.28,8.74,5.28Z"/><path class="cls-54" d="M1710.39,1044.22q5.43,4.23,9.92,7.52a104.91,104.91,0,0,1-19.62-21A27.32,27.32,0,0,0,1710.39,1044.22Z"/><path class="cls-54" d="M1876.71,879.18c-76.35-53.61-145.64,5.58-145.64,5.58s-41.81,37.32-47.81,75.06a87.22,87.22,0,0,0-1,15.91,100.09,100.09,0,0,0,18.4,55c-4.29-13.84,4.66-27.63,4.66-27.63s8.69-12.83,31,7c-.57-20.09,96.66-71.27,109.92-95.29,9,22.31,58.77,42,58.77,42C1917.4,959.39,1953.06,932.8,1876.71,879.18Z"/><path class="cls-54" d="M1733.28,1060.77c-3.35-2.19-7.68-5.15-13-9a106.19,106.19,0,0,0,11.94,8.41Z"/><g class="cls-62"><path class="cls-56" d="M1921.6,936c-4.63-2.74-10.29-2.81-15.67-3-12.69-.54-26.18-2.77-35.54-11.36-5.32-4.88-8.86-11.43-14-16.51s-13.12-8.57-19.57-5.31c-5.93,3-8,10.21-11.42,15.93-8.34,14-25.33,19.73-39.86,27.2a132.15,132.15,0,0,0-35.15,26.29c-5.82,6.09-11.19,12.87-18.49,17.08-4.33,2.5-9.23,4-13.2,7.07a21.5,21.5,0,0,0-7.5,22L1724,1045.5c0-7.25,10.15-10.3,12.41-17.19.55-1.69.6-3.55,1.47-5.1,1.64-2.91,5.41-3.64,8.69-4.24,35.06-6.41,63.48-31.43,88.71-56.6,3.92-3.91,8.25-8.08,13.75-8.72,3.88-.46,7.73.94,11.33,2.48,16.17,6.92,31.88,17.36,49.47,16.88,6.29-.17,12.9-2,17.12-6.68,5.73-6.36,5.45-16.65.92-23.91A18.94,18.94,0,0,0,1921.6,936Z"/></g><path d="M1786.42,979.64a2,2,0,0,0,2.32,3.26c14.35-10.22,25.47,1.61,25.93,2.12a2,2,0,0,0,1.48.65,2,2,0,0,0,1.34-.52,2,2,0,0,0,.14-2.83C1817.49,982.17,1803.7,967.34,1786.42,979.64Z"/><path d="M1887.27,978.5c-11.21-6.82-20.2-.37-23.39,4a2,2,0,0,0,3.23,2.36c.29-.4,7.17-9.56,18.08-2.93a2,2,0,0,0,2.08-3.42Z"/><path class="cls-47" d="M1611.83,1211.83c-13.21,44.44-38.42,150.11-38.42,150.11l-66.05-32.42s-45.63-31.22-73.25-10.81,25.21,72,25.21,72,121.29,74.46,142.91,64.85,69.35-157,69.35-157,19.58-79.56,6.94-123.39C1678.52,1175.21,1625,1167.4,1611.83,1211.83Z"/><g class="cls-63"><path class="cls-27" d="M1550.65,1290.93c-2.49,7.29-6.07,16.14-13.73,16.92-4.1.41-7.94-1.79-11.56-3.75-12.63-6.83-26.81-11.59-41.14-10.74-8.12.48-17.42,4-19.38,11.93-1.69,6.84,3,13.59,8.13,18.42,20.5,19.26,50.77,24.84,72.2,43.06,4.89,4.16,9.32,9,14.92,12.11s12.92,4.29,18.3.8c5.82-3.77,7.49-11.38,8.67-18.21,7.82-45.48,16.35-117.23,24.17-162.71L1599,1218.24A172.36,172.36,0,0,0,1550.65,1290.93Z"/><path class="cls-27" d="M1628.33,1444c-7.87-5.37-18.08-6-27.54-4.84a90.79,90.79,0,0,0-37,12.85l-3.59,19.22a334.62,334.62,0,0,0,46.51,6.78c6.59.49,13.43.75,19.6-1.64a18.57,18.57,0,0,0,9.36-7.5C1640.53,1460.64,1636.2,1449.31,1628.33,1444Z"/></g><ellipse class="cls-24" cx="1522.78" cy="1340.96" rx="41.68" ry="53.88"/><ellipse class="cls-33" cx="1537.35" cy="1340.96" rx="41.68" ry="53.88"/><path class="cls-24" d="M1546,1325.37c-6.66,0-12.06,7-12.06,15.59s5.4,15.58,12.06,15.58,12.06-7,12.06-15.58S1552.68,1325.37,1546,1325.37Z"/><path class="cls-33" d="M1552.46,1325.37c-6.66,0-12.06,7-12.06,15.59s5.4,15.58,12.06,15.58,12-7,12-15.58S1559.12,1325.37,1552.46,1325.37Z"/><ellipse class="cls-24" cx="2111.8" cy="1309.78" rx="41.68" ry="53.88"/><ellipse class="cls-33" cx="2097.23" cy="1309.78" rx="41.68" ry="53.88"/><path class="cls-24" d="M2088.56,1294.2c-6.65,0-12,7-12,15.58s5.4,15.59,12,15.59,12.06-7,12.06-15.59S2095.22,1294.2,2088.56,1294.2Z"/><path class="cls-33" d="M2082.13,1294.2c-6.66,0-12.06,7-12.06,15.58s5.4,15.59,12.06,15.59,12-7,12-15.59S2088.79,1294.2,2082.13,1294.2Z"/><path class="cls-27" d="M1471,1347.42a1.27,1.27,0,0,0,.52.83c.71.41,1.4-.57,1.64-1.35l6.18-19.5a5.4,5.4,0,0,0,.27-1.19c-1.68,3-7.43,7.81-8.38,11.1A17.94,17.94,0,0,0,1471,1347.42Z"/><path class="cls-27" d="M1452.56,1327a14.9,14.9,0,0,0-3.63,4.55,1.14,1.14,0,0,0-.11,1c.21.44.83.45,1.31.37a28.22,28.22,0,0,0,12.64-5.83,84.53,84.53,0,0,0,10.11-9.74l-4.86.79A40.89,40.89,0,0,0,1452.56,1327Z"/></g></svg>